<mxfile host="app.diagrams.net" agent="Mozilla/5.0 (Windows NT 10.0; Win64; x64) AppleWebKit/537.36 (KHTML, like Gecko) Chrome/134.0.0.0 Safari/537.36" version="26.2.2" pages="2">
  <diagram name="Page-1" id="74e2e168-ea6b-b213-b513-2b3c1d86103e">
    <mxGraphModel dx="1434" dy="786" grid="1" gridSize="10" guides="1" tooltips="1" connect="1" arrows="1" fold="1" page="1" pageScale="1" pageWidth="1100" pageHeight="850" background="none" math="0" shadow="0">
      <root>
        <mxCell id="0" />
        <mxCell id="1" parent="0" />
        <mxCell id="77e6c97f196da883-1" value="Dom0" style="swimlane;html=1;childLayout=stackLayout;startSize=20;rounded=0;shadow=0;labelBackgroundColor=none;strokeWidth=1;fontFamily=Verdana;fontSize=8;align=center;" parent="1" vertex="1">
          <mxGeometry x="70" y="40" width="1380" height="770" as="geometry" />
        </mxCell>
        <mxCell id="77e6c97f196da883-2" value="xrt" style="swimlane;html=1;startSize=20;" parent="77e6c97f196da883-1" vertex="1">
          <mxGeometry y="20" width="170" height="750" as="geometry" />
        </mxCell>
        <mxCell id="77e6c97f196da883-8" value="xrt::bo::create" style="rounded=1;whiteSpace=wrap;html=1;shadow=0;labelBackgroundColor=none;strokeWidth=1;fontFamily=Verdana;fontSize=10;align=center;fontStyle=1" parent="77e6c97f196da883-2" vertex="1">
          <mxGeometry x="20" y="40" width="100" height="20" as="geometry" />
        </mxCell>
        <mxCell id="77e6c97f196da883-10" value="open(device)" style="rounded=1;whiteSpace=wrap;html=1;shadow=0;labelBackgroundColor=none;strokeWidth=1;fontFamily=Verdana;fontSize=10;align=center;fontStyle=1" parent="77e6c97f196da883-2" vertex="1">
          <mxGeometry x="20" y="362" width="100" height="40" as="geometry" />
        </mxCell>
        <mxCell id="4yE-ozbgTQOb8NQGivvM-51" value="dev.submit_cmd" style="rounded=1;whiteSpace=wrap;html=1;shadow=0;labelBackgroundColor=none;strokeWidth=1;fontFamily=Verdana;fontSize=10;align=center;fontStyle=1" parent="77e6c97f196da883-2" vertex="1">
          <mxGeometry x="15" y="631" width="140" height="35" as="geometry" />
        </mxCell>
        <mxCell id="77e6c97f196da883-40" style="edgeStyle=orthogonalEdgeStyle;rounded=1;html=1;labelBackgroundColor=none;startArrow=none;startFill=0;startSize=5;endArrow=classicThin;endFill=1;endSize=5;jettySize=auto;orthogonalLoop=1;strokeWidth=1;fontFamily=Verdana;fontSize=8;fontStyle=1" parent="77e6c97f196da883-1" source="77e6c97f196da883-23" target="77e6c97f196da883-24" edge="1">
          <mxGeometry relative="1" as="geometry" />
        </mxCell>
        <mxCell id="77e6c97f196da883-3" value="shim" style="swimlane;html=1;startSize=20;" parent="77e6c97f196da883-1" vertex="1">
          <mxGeometry x="170" y="20" width="160" height="750" as="geometry" />
        </mxCell>
        <mxCell id="77e6c97f196da883-11" value="&lt;span style=&quot;color: rgb(31, 35, 40); font-family: -apple-system, BlinkMacSystemFont, &amp;quot;Segoe UI&amp;quot;, &amp;quot;Noto Sans&amp;quot;, Helvetica, Arial, sans-serif, &amp;quot;Apple Color Emoji&amp;quot;, &amp;quot;Segoe UI Emoji&amp;quot;; text-align: left; background-color: rgb(255, 255, 255);&quot;&gt;create_bo_ioctl&lt;/span&gt;" style="rounded=1;whiteSpace=wrap;html=1;shadow=0;labelBackgroundColor=none;strokeWidth=1;fontFamily=Verdana;fontSize=11;align=center;fontStyle=1" parent="77e6c97f196da883-3" vertex="1">
          <mxGeometry x="30" y="40" width="100" height="20" as="geometry" />
        </mxCell>
        <mxCell id="UVIkPZb_41dEvF_73nk6-7" value="sync_bo_ioctl" style="rounded=1;whiteSpace=wrap;html=1;shadow=0;labelBackgroundColor=none;strokeWidth=1;fontFamily=Verdana;fontSize=10;align=center;fontStyle=1" vertex="1" parent="77e6c97f196da883-3">
          <mxGeometry x="30" y="540" width="100" height="40" as="geometry" />
        </mxCell>
        <mxCell id="UVIkPZb_41dEvF_73nk6-15" value="submit_cmd_ioctl" style="rounded=1;whiteSpace=wrap;html=1;shadow=0;labelBackgroundColor=none;strokeWidth=1;fontFamily=Verdana;fontSize=10;align=center;fontStyle=1" vertex="1" parent="77e6c97f196da883-3">
          <mxGeometry x="20" y="630" width="110" height="40" as="geometry" />
        </mxCell>
        <mxCell id="77e6c97f196da883-4" value="drm/gem" style="swimlane;html=1;startSize=20;" parent="77e6c97f196da883-1" vertex="1">
          <mxGeometry x="330" y="20" width="180" height="750" as="geometry" />
        </mxCell>
        <mxCell id="77e6c97f196da883-14" value="drm_driver.open" style="rounded=1;whiteSpace=wrap;html=1;shadow=0;labelBackgroundColor=none;strokeWidth=1;fontFamily=Verdana;fontSize=10;align=center;fontStyle=1" parent="77e6c97f196da883-4" vertex="1">
          <mxGeometry x="31" y="362" width="100" height="40" as="geometry" />
        </mxCell>
        <mxCell id="UbXINiYKLftAWwF0POLq-105" value="&lt;span style=&quot;font-size: 10px;&quot;&gt;drm_gem_shmem_mmap&lt;/span&gt;" style="rounded=1;whiteSpace=wrap;html=1;shadow=0;labelBackgroundColor=none;strokeWidth=1;fontFamily=Verdana;fontSize=8;align=center;fontStyle=1" parent="77e6c97f196da883-4" vertex="1">
          <mxGeometry x="9" y="250" width="150" height="56" as="geometry" />
        </mxCell>
        <mxCell id="4yE-ozbgTQOb8NQGivvM-27" value="&lt;span style=&quot;font-size: 10px;&quot;&gt;drm_gem_map_dma_buf&lt;/span&gt;" style="rounded=1;whiteSpace=wrap;html=1;shadow=0;labelBackgroundColor=none;strokeWidth=1;fontFamily=Verdana;fontSize=8;align=center;fontStyle=1" parent="77e6c97f196da883-4" vertex="1">
          <mxGeometry x="15" y="126" width="150" height="36" as="geometry" />
        </mxCell>
        <mxCell id="UVIkPZb_41dEvF_73nk6-10" value="drm_gem_shmem_pin" style="rounded=1;whiteSpace=wrap;html=1;shadow=0;labelBackgroundColor=none;strokeWidth=1;fontFamily=Verdana;fontSize=10;align=center;fontStyle=1" vertex="1" parent="77e6c97f196da883-4">
          <mxGeometry x="14" y="580" width="140" height="40" as="geometry" />
        </mxCell>
        <mxCell id="UVIkPZb_41dEvF_73nk6-13" value="&lt;span style=&quot;font-size: 10px;&quot;&gt;drm_gem_shmem_create&lt;/span&gt;" style="rounded=1;whiteSpace=wrap;html=1;shadow=0;labelBackgroundColor=none;strokeWidth=1;fontFamily=Verdana;fontSize=8;align=center;fontStyle=1" vertex="1" parent="77e6c97f196da883-4">
          <mxGeometry x="15" y="68.75" width="150" height="24.75" as="geometry" />
        </mxCell>
        <mxCell id="77e6c97f196da883-5" value="xdna driver" style="swimlane;html=1;startSize=20;" parent="77e6c97f196da883-1" vertex="1">
          <mxGeometry x="510" y="20" width="170" height="750" as="geometry" />
        </mxCell>
        <mxCell id="77e6c97f196da883-18" value="amdxdna_drm&lt;div&gt;_create_bo_ioctl&lt;/div&gt;" style="rounded=1;whiteSpace=wrap;html=1;shadow=0;labelBackgroundColor=none;strokeWidth=1;fontFamily=Verdana;fontSize=10;align=center;fontStyle=1" parent="77e6c97f196da883-5" vertex="1">
          <mxGeometry x="20" y="31.25" width="130" height="37.5" as="geometry" />
        </mxCell>
        <mxCell id="77e6c97f196da883-23" value="amdxdna_drm_open" style="rounded=1;whiteSpace=wrap;html=1;shadow=0;labelBackgroundColor=none;strokeWidth=1;fontFamily=Verdana;fontSize=10;align=center;fontStyle=1" parent="77e6c97f196da883-5" vertex="1">
          <mxGeometry x="17" y="362" width="130" height="40" as="geometry" />
        </mxCell>
        <mxCell id="UbXINiYKLftAWwF0POLq-106" value="amdxdna_gem&lt;div&gt;_dmabuf_mmap&lt;/div&gt;" style="rounded=1;whiteSpace=wrap;html=1;shadow=0;labelBackgroundColor=none;strokeWidth=1;fontFamily=Verdana;fontSize=10;align=center;fontStyle=1" parent="77e6c97f196da883-5" vertex="1">
          <mxGeometry x="34" y="185" width="100" height="44" as="geometry" />
        </mxCell>
        <mxCell id="4yE-ozbgTQOb8NQGivvM-10" value="amdxdna_hmm_invalidate" style="rounded=1;whiteSpace=wrap;html=1;shadow=0;labelBackgroundColor=none;strokeWidth=1;fontFamily=Verdana;fontSize=10;align=center;fontStyle=1" parent="77e6c97f196da883-5" vertex="1">
          <mxGeometry x="6.5" y="450" width="157" height="30" as="geometry" />
        </mxCell>
        <object label="amdxdna_gem&lt;div&gt;_obj_mmap&lt;/div&gt;" id="4yE-ozbgTQOb8NQGivvM-9">
          <mxCell style="rounded=1;whiteSpace=wrap;html=1;shadow=0;labelBackgroundColor=none;strokeWidth=1;fontFamily=Verdana;fontSize=10;align=center;fontStyle=1" parent="77e6c97f196da883-5" vertex="1">
            <mxGeometry x="18" y="250" width="134" height="40" as="geometry" />
          </mxCell>
        </object>
        <mxCell id="UVIkPZb_41dEvF_73nk6-19" style="edgeStyle=orthogonalEdgeStyle;rounded=0;orthogonalLoop=1;jettySize=auto;html=1;exitX=0.5;exitY=1;exitDx=0;exitDy=0;entryX=0.5;entryY=0;entryDx=0;entryDy=0;" edge="1" parent="77e6c97f196da883-5" source="VXW_yDJZZmlwBrVT6001-30" target="UVIkPZb_41dEvF_73nk6-18">
          <mxGeometry relative="1" as="geometry" />
        </mxCell>
        <mxCell id="VXW_yDJZZmlwBrVT6001-30" value="amdxdna_cmd_submit" style="rounded=1;whiteSpace=wrap;html=1;shadow=0;labelBackgroundColor=none;strokeWidth=1;fontFamily=Verdana;fontSize=10;align=center;fontStyle=1" parent="77e6c97f196da883-5" vertex="1">
          <mxGeometry x="10" y="631" width="140" height="35" as="geometry" />
        </mxCell>
        <mxCell id="UVIkPZb_41dEvF_73nk6-8" value="amdxdna_gem_pin" style="rounded=1;whiteSpace=wrap;html=1;shadow=0;labelBackgroundColor=none;strokeWidth=1;fontFamily=Verdana;fontSize=10;align=center;fontStyle=1" vertex="1" parent="77e6c97f196da883-5">
          <mxGeometry x="10" y="545" width="157" height="30" as="geometry" />
        </mxCell>
        <mxCell id="UVIkPZb_41dEvF_73nk6-18" value="aie2_populate_range" style="rounded=1;whiteSpace=wrap;html=1;shadow=0;labelBackgroundColor=none;strokeWidth=1;fontFamily=Verdana;fontSize=10;align=center;fontStyle=1" vertex="1" parent="77e6c97f196da883-5">
          <mxGeometry x="10" y="690" width="140" height="35" as="geometry" />
        </mxCell>
        <mxCell id="77e6c97f196da883-6" value="dma" style="swimlane;html=1;startSize=20;" parent="77e6c97f196da883-1" vertex="1">
          <mxGeometry x="680" y="20" width="160" height="750" as="geometry" />
        </mxCell>
        <mxCell id="UbXINiYKLftAWwF0POLq-107" value="dma_buf_mmap" style="rounded=1;whiteSpace=wrap;html=1;shadow=0;labelBackgroundColor=none;strokeWidth=1;fontFamily=Verdana;fontSize=10;align=center;fontStyle=1" parent="77e6c97f196da883-6" vertex="1">
          <mxGeometry x="30" y="274" width="110" height="40" as="geometry" />
        </mxCell>
        <mxCell id="77e6c97f196da883-22" value="dma_resv_wait_timeout" style="rounded=1;whiteSpace=wrap;html=1;shadow=0;labelBackgroundColor=none;strokeWidth=1;fontFamily=Verdana;fontSize=10;align=center;fontStyle=1" parent="77e6c97f196da883-6" vertex="1">
          <mxGeometry x="15" y="500" width="140" height="40" as="geometry" />
        </mxCell>
        <mxCell id="77e6c97f196da883-7" value="iommu" style="swimlane;html=1;startSize=20;" parent="77e6c97f196da883-1" vertex="1">
          <mxGeometry x="840" y="20" width="180" height="750" as="geometry" />
        </mxCell>
        <mxCell id="77e6c97f196da883-24" value="iommu_sva_bind_device" style="rounded=1;whiteSpace=wrap;html=1;shadow=0;labelBackgroundColor=none;strokeWidth=1;fontFamily=Verdana;fontSize=10;align=center;fontStyle=1" parent="77e6c97f196da883-7" vertex="1">
          <mxGeometry x="20" y="322" width="150" height="40" as="geometry" />
        </mxCell>
        <mxCell id="77e6c97f196da883-21" value="iommu_sva_get_pasid" style="rounded=1;whiteSpace=wrap;html=1;shadow=0;labelBackgroundColor=none;strokeWidth=1;fontFamily=Verdana;fontSize=10;align=center;fontStyle=1" parent="77e6c97f196da883-7" vertex="1">
          <mxGeometry x="20" y="392" width="140" height="45" as="geometry" />
        </mxCell>
        <mxCell id="UbXINiYKLftAWwF0POLq-96" style="edgeStyle=orthogonalEdgeStyle;rounded=0;orthogonalLoop=1;jettySize=auto;html=1;exitX=1;exitY=0.5;exitDx=0;exitDy=0;entryX=0;entryY=0.5;entryDx=0;entryDy=0;fontStyle=1" parent="77e6c97f196da883-1" source="77e6c97f196da883-8" target="77e6c97f196da883-11" edge="1">
          <mxGeometry relative="1" as="geometry" />
        </mxCell>
        <mxCell id="UbXINiYKLftAWwF0POLq-114" style="edgeStyle=orthogonalEdgeStyle;rounded=0;orthogonalLoop=1;jettySize=auto;html=1;exitX=1;exitY=0.5;exitDx=0;exitDy=0;entryX=0;entryY=0.5;entryDx=0;entryDy=0;fontStyle=1" parent="77e6c97f196da883-1" source="77e6c97f196da883-11" target="77e6c97f196da883-18" edge="1">
          <mxGeometry relative="1" as="geometry" />
        </mxCell>
        <mxCell id="oizl7t2Fv6kCmMiVF6kX-2" style="edgeStyle=orthogonalEdgeStyle;rounded=0;orthogonalLoop=1;jettySize=auto;html=1;exitX=1;exitY=0.75;exitDx=0;exitDy=0;entryX=0;entryY=0.5;entryDx=0;entryDy=0;fontStyle=1" parent="77e6c97f196da883-1" source="77e6c97f196da883-23" target="77e6c97f196da883-21" edge="1">
          <mxGeometry relative="1" as="geometry" />
        </mxCell>
        <mxCell id="oizl7t2Fv6kCmMiVF6kX-3" style="edgeStyle=orthogonalEdgeStyle;rounded=0;orthogonalLoop=1;jettySize=auto;html=1;exitX=1;exitY=0.5;exitDx=0;exitDy=0;entryX=0;entryY=0.5;entryDx=0;entryDy=0;fontStyle=1" parent="77e6c97f196da883-1" source="77e6c97f196da883-10" target="77e6c97f196da883-14" edge="1">
          <mxGeometry relative="1" as="geometry" />
        </mxCell>
        <mxCell id="oizl7t2Fv6kCmMiVF6kX-4" style="edgeStyle=orthogonalEdgeStyle;rounded=0;orthogonalLoop=1;jettySize=auto;html=1;exitX=1;exitY=0.5;exitDx=0;exitDy=0;entryX=0;entryY=0.5;entryDx=0;entryDy=0;fontStyle=1" parent="77e6c97f196da883-1" source="77e6c97f196da883-14" target="77e6c97f196da883-23" edge="1">
          <mxGeometry relative="1" as="geometry" />
        </mxCell>
        <mxCell id="4yE-ozbgTQOb8NQGivvM-6" value="iommu driver" style="swimlane;html=1;startSize=20;" parent="77e6c97f196da883-1" vertex="1">
          <mxGeometry x="1020" y="20" width="180" height="750" as="geometry" />
        </mxCell>
        <mxCell id="UVIkPZb_41dEvF_73nk6-1" value="iommu_domain_ops&lt;div&gt;.set_dev_pasid&lt;/div&gt;" style="rounded=1;whiteSpace=wrap;html=1;shadow=0;labelBackgroundColor=none;strokeWidth=1;fontFamily=Verdana;fontSize=10;align=center;fontStyle=1" vertex="1" parent="4yE-ozbgTQOb8NQGivvM-6">
          <mxGeometry x="30" y="350" width="140" height="45" as="geometry" />
        </mxCell>
        <mxCell id="UVIkPZb_41dEvF_73nk6-2" value="iommu_ops&lt;div&gt;.domain_alloc /&lt;/div&gt;&lt;div&gt;.domain_alloc_sva&lt;/div&gt;" style="rounded=1;whiteSpace=wrap;html=1;shadow=0;labelBackgroundColor=none;strokeWidth=1;fontFamily=Verdana;fontSize=10;align=center;fontStyle=1" vertex="1" parent="4yE-ozbgTQOb8NQGivvM-6">
          <mxGeometry x="30" y="270" width="140" height="52" as="geometry" />
        </mxCell>
        <mxCell id="4yE-ozbgTQOb8NQGivvM-11" style="edgeStyle=orthogonalEdgeStyle;rounded=0;orthogonalLoop=1;jettySize=auto;html=1;exitX=0;exitY=0.5;exitDx=0;exitDy=0;entryX=1;entryY=0.5;entryDx=0;entryDy=0;" parent="77e6c97f196da883-1" source="4yE-ozbgTQOb8NQGivvM-54" target="4yE-ozbgTQOb8NQGivvM-10" edge="1">
          <mxGeometry relative="1" as="geometry">
            <mxPoint x="1040" y="487.5" as="sourcePoint" />
          </mxGeometry>
        </mxCell>
        <mxCell id="4yE-ozbgTQOb8NQGivvM-14" style="edgeStyle=orthogonalEdgeStyle;rounded=0;orthogonalLoop=1;jettySize=auto;html=1;exitX=0.75;exitY=1;exitDx=0;exitDy=0;entryX=0;entryY=0.5;entryDx=0;entryDy=0;" parent="77e6c97f196da883-1" source="4yE-ozbgTQOb8NQGivvM-10" target="77e6c97f196da883-22" edge="1">
          <mxGeometry relative="1" as="geometry" />
        </mxCell>
        <mxCell id="4yE-ozbgTQOb8NQGivvM-40" style="edgeStyle=orthogonalEdgeStyle;rounded=0;orthogonalLoop=1;jettySize=auto;html=1;exitX=1;exitY=1;exitDx=0;exitDy=0;entryX=0;entryY=0.5;entryDx=0;entryDy=0;" parent="77e6c97f196da883-1" source="UbXINiYKLftAWwF0POLq-105" target="UbXINiYKLftAWwF0POLq-107" edge="1">
          <mxGeometry relative="1" as="geometry">
            <Array as="points">
              <mxPoint x="495" y="346" />
              <mxPoint x="690" y="346" />
              <mxPoint x="690" y="290" />
            </Array>
          </mxGeometry>
        </mxCell>
        <mxCell id="4yE-ozbgTQOb8NQGivvM-47" style="edgeStyle=orthogonalEdgeStyle;rounded=0;orthogonalLoop=1;jettySize=auto;html=1;exitX=0;exitY=0.75;exitDx=0;exitDy=0;entryX=1;entryY=0.5;entryDx=0;entryDy=0;" parent="77e6c97f196da883-1" source="UbXINiYKLftAWwF0POLq-106" target="UbXINiYKLftAWwF0POLq-105" edge="1">
          <mxGeometry relative="1" as="geometry" />
        </mxCell>
        <mxCell id="4yE-ozbgTQOb8NQGivvM-49" style="edgeStyle=orthogonalEdgeStyle;rounded=0;orthogonalLoop=1;jettySize=auto;html=1;exitX=0;exitY=1;exitDx=0;exitDy=0;entryX=0.993;entryY=0.643;entryDx=0;entryDy=0;entryPerimeter=0;" parent="77e6c97f196da883-1" source="4yE-ozbgTQOb8NQGivvM-9" target="UbXINiYKLftAWwF0POLq-105" edge="1">
          <mxGeometry relative="1" as="geometry">
            <Array as="points">
              <mxPoint x="528" y="306" />
            </Array>
          </mxGeometry>
        </mxCell>
        <mxCell id="4yE-ozbgTQOb8NQGivvM-46" style="edgeStyle=orthogonalEdgeStyle;rounded=0;orthogonalLoop=1;jettySize=auto;html=1;exitX=0.75;exitY=1;exitDx=0;exitDy=0;entryX=0;entryY=0.25;entryDx=0;entryDy=0;" parent="77e6c97f196da883-1" source="4yE-ozbgTQOb8NQGivvM-27" target="UbXINiYKLftAWwF0POLq-106" edge="1">
          <mxGeometry relative="1" as="geometry">
            <Array as="points">
              <mxPoint x="466" y="210" />
              <mxPoint x="524" y="210" />
              <mxPoint x="524" y="216" />
            </Array>
          </mxGeometry>
        </mxCell>
        <mxCell id="4yE-ozbgTQOb8NQGivvM-53" value="Other kernel modules" style="swimlane;html=1;startSize=20;" parent="77e6c97f196da883-1" vertex="1">
          <mxGeometry x="1200" y="20" width="180" height="750" as="geometry" />
        </mxCell>
        <mxCell id="4yE-ozbgTQOb8NQGivvM-54" value="mmu_notifier" style="rounded=1;whiteSpace=wrap;html=1;shadow=0;labelBackgroundColor=none;strokeWidth=1;fontFamily=Verdana;fontSize=10;align=center;fontStyle=1" parent="4yE-ozbgTQOb8NQGivvM-53" vertex="1">
          <mxGeometry x="20" y="460" width="110" height="30" as="geometry" />
        </mxCell>
        <mxCell id="4yE-ozbgTQOb8NQGivvM-55" value="&lt;span style=&quot;color: rgb(31, 35, 40); font-family: -apple-system, BlinkMacSystemFont, &amp;quot;Segoe UI&amp;quot;, &amp;quot;Noto Sans&amp;quot;, Helvetica, Arial, sans-serif, &amp;quot;Apple Color Emoji&amp;quot;, &amp;quot;Segoe UI Emoji&amp;quot;; text-align: left; background-color: rgb(255, 255, 255);&quot;&gt;hmm_range_fault&lt;/span&gt;" style="rounded=1;whiteSpace=wrap;html=1;shadow=0;labelBackgroundColor=none;strokeWidth=1;fontFamily=Verdana;fontSize=10;align=center;fontStyle=1" parent="4yE-ozbgTQOb8NQGivvM-53" vertex="1">
          <mxGeometry x="20" y="631" width="110" height="35" as="geometry" />
        </mxCell>
        <mxCell id="UVIkPZb_41dEvF_73nk6-4" style="edgeStyle=orthogonalEdgeStyle;rounded=0;orthogonalLoop=1;jettySize=auto;html=1;exitX=1;exitY=0.75;exitDx=0;exitDy=0;entryX=0;entryY=0.5;entryDx=0;entryDy=0;" edge="1" parent="77e6c97f196da883-1" source="77e6c97f196da883-24" target="UVIkPZb_41dEvF_73nk6-1">
          <mxGeometry relative="1" as="geometry">
            <Array as="points">
              <mxPoint x="1030" y="372" />
              <mxPoint x="1030" y="393" />
            </Array>
          </mxGeometry>
        </mxCell>
        <mxCell id="UVIkPZb_41dEvF_73nk6-6" style="edgeStyle=orthogonalEdgeStyle;rounded=0;orthogonalLoop=1;jettySize=auto;html=1;exitX=1;exitY=0.25;exitDx=0;exitDy=0;entryX=0;entryY=0.5;entryDx=0;entryDy=0;" edge="1" parent="77e6c97f196da883-1" source="77e6c97f196da883-24" target="UVIkPZb_41dEvF_73nk6-2">
          <mxGeometry relative="1" as="geometry" />
        </mxCell>
        <mxCell id="UVIkPZb_41dEvF_73nk6-9" style="edgeStyle=orthogonalEdgeStyle;rounded=0;orthogonalLoop=1;jettySize=auto;html=1;exitX=1;exitY=0.5;exitDx=0;exitDy=0;entryX=0;entryY=0.5;entryDx=0;entryDy=0;" edge="1" parent="77e6c97f196da883-1" source="UVIkPZb_41dEvF_73nk6-7" target="UVIkPZb_41dEvF_73nk6-8">
          <mxGeometry relative="1" as="geometry" />
        </mxCell>
        <mxCell id="UVIkPZb_41dEvF_73nk6-12" style="edgeStyle=orthogonalEdgeStyle;rounded=0;orthogonalLoop=1;jettySize=auto;html=1;exitX=0.5;exitY=1;exitDx=0;exitDy=0;entryX=1;entryY=0.5;entryDx=0;entryDy=0;" edge="1" parent="77e6c97f196da883-1" source="UVIkPZb_41dEvF_73nk6-8" target="UVIkPZb_41dEvF_73nk6-10">
          <mxGeometry relative="1" as="geometry" />
        </mxCell>
        <mxCell id="UVIkPZb_41dEvF_73nk6-14" style="edgeStyle=orthogonalEdgeStyle;rounded=0;orthogonalLoop=1;jettySize=auto;html=1;exitX=0.5;exitY=1;exitDx=0;exitDy=0;entryX=1;entryY=0.5;entryDx=0;entryDy=0;" edge="1" parent="77e6c97f196da883-1" source="77e6c97f196da883-18" target="UVIkPZb_41dEvF_73nk6-13">
          <mxGeometry relative="1" as="geometry">
            <Array as="points">
              <mxPoint x="595" y="100" />
              <mxPoint x="510" y="100" />
              <mxPoint x="510" y="101" />
            </Array>
          </mxGeometry>
        </mxCell>
        <mxCell id="UVIkPZb_41dEvF_73nk6-17" style="edgeStyle=orthogonalEdgeStyle;rounded=0;orthogonalLoop=1;jettySize=auto;html=1;exitX=1;exitY=0.5;exitDx=0;exitDy=0;entryX=0;entryY=0.5;entryDx=0;entryDy=0;" edge="1" parent="77e6c97f196da883-1" source="UVIkPZb_41dEvF_73nk6-15" target="VXW_yDJZZmlwBrVT6001-30">
          <mxGeometry relative="1" as="geometry" />
        </mxCell>
        <mxCell id="UVIkPZb_41dEvF_73nk6-20" style="edgeStyle=orthogonalEdgeStyle;rounded=0;orthogonalLoop=1;jettySize=auto;html=1;exitX=1;exitY=0.5;exitDx=0;exitDy=0;entryX=0;entryY=0.5;entryDx=0;entryDy=0;" edge="1" parent="77e6c97f196da883-1" source="UVIkPZb_41dEvF_73nk6-18" target="4yE-ozbgTQOb8NQGivvM-55">
          <mxGeometry relative="1" as="geometry" />
        </mxCell>
        <mxCell id="UVIkPZb_41dEvF_73nk6-21" style="edgeStyle=orthogonalEdgeStyle;rounded=0;orthogonalLoop=1;jettySize=auto;html=1;exitX=1;exitY=0.5;exitDx=0;exitDy=0;entryX=0;entryY=0.5;entryDx=0;entryDy=0;" edge="1" parent="77e6c97f196da883-1" source="4yE-ozbgTQOb8NQGivvM-51" target="UVIkPZb_41dEvF_73nk6-15">
          <mxGeometry relative="1" as="geometry" />
        </mxCell>
        <mxCell id="UbXINiYKLftAWwF0POLq-103" value="xrt::bo::map" style="rounded=1;whiteSpace=wrap;html=1;shadow=0;labelBackgroundColor=none;strokeWidth=1;fontFamily=Verdana;fontSize=10;align=center;fontStyle=1" parent="1" vertex="1">
          <mxGeometry x="86" y="254" width="100" height="35" as="geometry" />
        </mxCell>
        <mxCell id="UbXINiYKLftAWwF0POLq-104" value="&lt;span style=&quot;color: rgb(31, 35, 40); font-family: -apple-system, BlinkMacSystemFont, &amp;quot;Segoe UI&amp;quot;, &amp;quot;Noto Sans&amp;quot;, Helvetica, Arial, sans-serif, &amp;quot;Apple Color Emoji&amp;quot;, &amp;quot;Segoe UI Emoji&amp;quot;; text-align: left; background-color: rgb(255, 255, 255);&quot;&gt;mmap_bo&lt;/span&gt;" style="rounded=1;whiteSpace=wrap;html=1;shadow=0;labelBackgroundColor=none;strokeWidth=1;fontFamily=Verdana;fontSize=10;align=center;fontStyle=1" parent="1" vertex="1">
          <mxGeometry x="256" y="258" width="100" height="31" as="geometry" />
        </mxCell>
        <mxCell id="UbXINiYKLftAWwF0POLq-110" style="edgeStyle=orthogonalEdgeStyle;rounded=0;orthogonalLoop=1;jettySize=auto;html=1;exitX=1;exitY=0.5;exitDx=0;exitDy=0;entryX=0;entryY=0.25;entryDx=0;entryDy=0;fontStyle=1" parent="1" source="UbXINiYKLftAWwF0POLq-104" target="4yE-ozbgTQOb8NQGivvM-9" edge="1">
          <mxGeometry relative="1" as="geometry">
            <Array as="points">
              <mxPoint x="570" y="274" />
              <mxPoint x="570" y="320" />
            </Array>
          </mxGeometry>
        </mxCell>
        <mxCell id="4yE-ozbgTQOb8NQGivvM-43" value="GEM" style="edgeLabel;html=1;align=center;verticalAlign=middle;resizable=0;points=[];" parent="UbXINiYKLftAWwF0POLq-110" vertex="1" connectable="0">
          <mxGeometry x="-0.2305" y="5" relative="1" as="geometry">
            <mxPoint y="-4" as="offset" />
          </mxGeometry>
        </mxCell>
        <mxCell id="UbXINiYKLftAWwF0POLq-113" style="edgeStyle=orthogonalEdgeStyle;rounded=0;orthogonalLoop=1;jettySize=auto;html=1;exitX=1;exitY=0.5;exitDx=0;exitDy=0;entryX=0;entryY=0.5;entryDx=0;entryDy=0;fontStyle=1" parent="1" source="UbXINiYKLftAWwF0POLq-103" target="UbXINiYKLftAWwF0POLq-104" edge="1">
          <mxGeometry relative="1" as="geometry" />
        </mxCell>
        <mxCell id="4yE-ozbgTQOb8NQGivvM-28" value="get_sg_table" style="rounded=1;whiteSpace=wrap;html=1;shadow=0;labelBackgroundColor=none;strokeWidth=1;fontFamily=Verdana;fontSize=10;align=center;fontStyle=1" parent="1" vertex="1">
          <mxGeometry x="617" y="186" width="100" height="30" as="geometry" />
        </mxCell>
        <mxCell id="4yE-ozbgTQOb8NQGivvM-29" value="dma_map_sgtable" style="rounded=1;whiteSpace=wrap;html=1;shadow=0;labelBackgroundColor=none;strokeWidth=1;fontFamily=Verdana;fontSize=10;align=center;fontStyle=1" parent="1" vertex="1">
          <mxGeometry x="783" y="211" width="110" height="40" as="geometry" />
        </mxCell>
        <object label="iommu_dma_map_sg" id="4yE-ozbgTQOb8NQGivvM-30">
          <mxCell style="rounded=1;whiteSpace=wrap;html=1;shadow=0;labelBackgroundColor=none;strokeWidth=1;fontFamily=Verdana;fontSize=10;align=center;fontStyle=1" parent="1" vertex="1">
            <mxGeometry x="933" y="211" width="134" height="40" as="geometry" />
          </mxCell>
        </object>
        <mxCell id="4yE-ozbgTQOb8NQGivvM-31" style="edgeStyle=orthogonalEdgeStyle;rounded=0;orthogonalLoop=1;jettySize=auto;html=1;exitX=1;exitY=0.5;exitDx=0;exitDy=0;entryX=0;entryY=0.5;entryDx=0;entryDy=0;fontStyle=1" parent="1" source="4yE-ozbgTQOb8NQGivvM-29" target="4yE-ozbgTQOb8NQGivvM-30" edge="1">
          <mxGeometry relative="1" as="geometry" />
        </mxCell>
        <mxCell id="4yE-ozbgTQOb8NQGivvM-32" style="edgeStyle=orthogonalEdgeStyle;rounded=0;orthogonalLoop=1;jettySize=auto;html=1;exitX=1;exitY=0.75;exitDx=0;exitDy=0;entryX=0;entryY=0.5;entryDx=0;entryDy=0;fontStyle=1" parent="1" source="4yE-ozbgTQOb8NQGivvM-27" target="4yE-ozbgTQOb8NQGivvM-29" edge="1">
          <mxGeometry relative="1" as="geometry">
            <Array as="points">
              <mxPoint x="600" y="213" />
              <mxPoint x="600" y="231" />
            </Array>
          </mxGeometry>
        </mxCell>
        <mxCell id="4yE-ozbgTQOb8NQGivvM-33" style="edgeStyle=orthogonalEdgeStyle;rounded=0;orthogonalLoop=1;jettySize=auto;html=1;exitX=1;exitY=0.5;exitDx=0;exitDy=0;entryX=0;entryY=0.5;entryDx=0;entryDy=0;fontStyle=1" parent="1" source="4yE-ozbgTQOb8NQGivvM-27" target="4yE-ozbgTQOb8NQGivvM-28" edge="1">
          <mxGeometry relative="1" as="geometry" />
        </mxCell>
        <mxCell id="4yE-ozbgTQOb8NQGivvM-35" value="xrt::bo::export_buffer" style="rounded=1;whiteSpace=wrap;html=1;shadow=0;labelBackgroundColor=none;strokeWidth=1;fontFamily=Verdana;fontSize=10;align=center;fontStyle=1" parent="1" vertex="1">
          <mxGeometry x="89" y="186" width="141" height="35" as="geometry" />
        </mxCell>
        <mxCell id="4yE-ozbgTQOb8NQGivvM-37" style="edgeStyle=orthogonalEdgeStyle;rounded=0;orthogonalLoop=1;jettySize=auto;html=1;exitX=1;exitY=0.5;exitDx=0;exitDy=0;entryX=0;entryY=0.5;entryDx=0;entryDy=0;fontStyle=1" parent="1" source="4yE-ozbgTQOb8NQGivvM-35" target="4yE-ozbgTQOb8NQGivvM-27" edge="1">
          <mxGeometry relative="1" as="geometry">
            <mxPoint x="359" y="205.5" as="sourcePoint" />
          </mxGeometry>
        </mxCell>
        <mxCell id="4yE-ozbgTQOb8NQGivvM-39" value="DMA-BUF" style="edgeLabel;html=1;align=center;verticalAlign=middle;resizable=0;points=[];" parent="4yE-ozbgTQOb8NQGivvM-37" vertex="1" connectable="0">
          <mxGeometry x="-0.2644" y="1" relative="1" as="geometry">
            <mxPoint y="-9" as="offset" />
          </mxGeometry>
        </mxCell>
      </root>
    </mxGraphModel>
  </diagram>
  <diagram id="ndnVVZQBO5W694-esiPF" name="Page-2">
    <mxGraphModel dx="1408" dy="783" grid="1" gridSize="10" guides="1" tooltips="1" connect="1" arrows="1" fold="1" page="1" pageScale="1" pageWidth="850" pageHeight="1100" math="0" shadow="0">
      <root>
        <mxCell id="0" />
        <mxCell id="1" parent="0" />
        <mxCell id="k6S-WnNNYm_9SUemiod7-1" value="&lt;font style=&quot;font-size: 14px;&quot;&gt;DomU&lt;/font&gt;" style="swimlane;html=1;childLayout=stackLayout;startSize=20;rounded=0;shadow=0;labelBackgroundColor=none;strokeWidth=1;fontFamily=Verdana;fontSize=8;align=center;" vertex="1" parent="1">
          <mxGeometry x="20" y="20" width="450" height="770" as="geometry" />
        </mxCell>
        <mxCell id="k6S-WnNNYm_9SUemiod7-2" value="xrt" style="swimlane;html=1;startSize=20;" vertex="1" parent="k6S-WnNNYm_9SUemiod7-1">
          <mxGeometry y="20" width="160" height="750" as="geometry" />
        </mxCell>
        <mxCell id="k6S-WnNNYm_9SUemiod7-3" value="xrt::bo::create" style="rounded=1;whiteSpace=wrap;html=1;shadow=0;labelBackgroundColor=none;strokeWidth=1;fontFamily=Verdana;fontSize=10;align=center;fontStyle=1" vertex="1" parent="k6S-WnNNYm_9SUemiod7-2">
          <mxGeometry x="20" y="49" width="120" height="30" as="geometry" />
        </mxCell>
        <mxCell id="k6S-WnNNYm_9SUemiod7-11" value="virtio-npu shim" style="swimlane;html=1;startSize=20;" vertex="1" parent="k6S-WnNNYm_9SUemiod7-1">
          <mxGeometry x="160" y="20" width="130" height="750" as="geometry" />
        </mxCell>
        <mxCell id="k6S-WnNNYm_9SUemiod7-27" value="virtio-gpu driver" style="swimlane;html=1;startSize=20;" vertex="1" parent="k6S-WnNNYm_9SUemiod7-1">
          <mxGeometry x="290" y="20" width="160" height="750" as="geometry" />
        </mxCell>
        <mxCell id="k6S-WnNNYm_9SUemiod7-28" value="virtio_gpu_cmd&lt;div&gt;_resource_create_blob&lt;/div&gt;" style="rounded=1;whiteSpace=wrap;html=1;shadow=0;labelBackgroundColor=none;strokeWidth=1;fontFamily=Verdana;fontSize=10;align=center;fontStyle=1" vertex="1" parent="k6S-WnNNYm_9SUemiod7-27">
          <mxGeometry x="15" y="44" width="130" height="40" as="geometry" />
        </mxCell>
        <mxCell id="k6S-WnNNYm_9SUemiod7-123" style="edgeStyle=orthogonalEdgeStyle;rounded=0;orthogonalLoop=1;jettySize=auto;html=1;exitX=1;exitY=0.5;exitDx=0;exitDy=0;entryX=0;entryY=0.5;entryDx=0;entryDy=0;" edge="1" parent="k6S-WnNNYm_9SUemiod7-1" source="k6S-WnNNYm_9SUemiod7-3" target="k6S-WnNNYm_9SUemiod7-28">
          <mxGeometry relative="1" as="geometry" />
        </mxCell>
        <mxCell id="k6S-WnNNYm_9SUemiod7-58" value="&lt;font style=&quot;font-size: 14px;&quot;&gt;Dom0&lt;/font&gt;" style="swimlane;html=1;childLayout=stackLayout;startSize=20;rounded=0;shadow=0;labelBackgroundColor=none;strokeWidth=1;fontFamily=Verdana;fontSize=8;align=center;" vertex="1" parent="1">
          <mxGeometry x="515" y="20" width="690" height="770" as="geometry" />
        </mxCell>
        <mxCell id="k6S-WnNNYm_9SUemiod7-59" value="Qemu/libxen" style="swimlane;html=1;startSize=20;" vertex="1" parent="k6S-WnNNYm_9SUemiod7-58">
          <mxGeometry y="20" width="250" height="750" as="geometry" />
        </mxCell>
        <mxCell id="k6S-WnNNYm_9SUemiod7-113" style="edgeStyle=orthogonalEdgeStyle;rounded=0;orthogonalLoop=1;jettySize=auto;html=1;exitX=0.5;exitY=1;exitDx=0;exitDy=0;entryX=0.5;entryY=0;entryDx=0;entryDy=0;" edge="1" parent="k6S-WnNNYm_9SUemiod7-59">
          <mxGeometry relative="1" as="geometry">
            <mxPoint x="80.5" y="81" as="sourcePoint" />
            <mxPoint x="78" y="117" as="targetPoint" />
          </mxGeometry>
        </mxCell>
        <mxCell id="Dicnx9SFhEwgV79c3oT9-14" value="GPA sglist" style="edgeLabel;html=1;align=center;verticalAlign=middle;resizable=0;points=[];fontStyle=1;fontSize=11;" vertex="1" connectable="0" parent="k6S-WnNNYm_9SUemiod7-113">
          <mxGeometry y="-1" relative="1" as="geometry">
            <mxPoint x="-30" as="offset" />
          </mxGeometry>
        </mxCell>
        <mxCell id="Dicnx9SFhEwgV79c3oT9-16" style="edgeStyle=orthogonalEdgeStyle;rounded=0;orthogonalLoop=1;jettySize=auto;html=1;exitX=0.75;exitY=1;exitDx=0;exitDy=0;entryX=0.5;entryY=0;entryDx=0;entryDy=0;" edge="1" parent="k6S-WnNNYm_9SUemiod7-59" source="k6S-WnNNYm_9SUemiod7-61" target="k6S-WnNNYm_9SUemiod7-14">
          <mxGeometry relative="1" as="geometry">
            <Array as="points">
              <mxPoint x="189" y="290" />
              <mxPoint x="92" y="290" />
            </Array>
          </mxGeometry>
        </mxCell>
        <mxCell id="k6S-WnNNYm_9SUemiod7-61" value="&lt;span style=&quot;&quot;&gt;virtio_gpu&lt;/span&gt;&lt;div&gt;&lt;span style=&quot;&quot;&gt;_create_mapping_iov&lt;/span&gt;&lt;/div&gt;" style="rounded=1;whiteSpace=wrap;html=1;shadow=0;labelBackgroundColor=none;strokeWidth=1;fontFamily=Verdana;fontSize=10;align=center;fontStyle=1" vertex="1" parent="k6S-WnNNYm_9SUemiod7-59">
          <mxGeometry x="35" y="47" width="205" height="34" as="geometry" />
        </mxCell>
        <mxCell id="k6S-WnNNYm_9SUemiod7-114" style="edgeStyle=orthogonalEdgeStyle;rounded=0;orthogonalLoop=1;jettySize=auto;html=1;exitX=0.5;exitY=1;exitDx=0;exitDy=0;entryX=0.5;entryY=0;entryDx=0;entryDy=0;" edge="1" parent="k6S-WnNNYm_9SUemiod7-59" source="k6S-WnNNYm_9SUemiod7-75" target="k6S-WnNNYm_9SUemiod7-107">
          <mxGeometry relative="1" as="geometry" />
        </mxCell>
        <mxCell id="Dicnx9SFhEwgV79c3oT9-8" style="edgeStyle=orthogonalEdgeStyle;rounded=0;orthogonalLoop=1;jettySize=auto;html=1;exitX=0.75;exitY=0;exitDx=0;exitDy=0;entryX=0.75;entryY=1;entryDx=0;entryDy=0;" edge="1" parent="k6S-WnNNYm_9SUemiod7-59">
          <mxGeometry relative="1" as="geometry">
            <mxPoint x="116.5" y="117" as="sourcePoint" />
            <mxPoint x="117.75" y="81" as="targetPoint" />
          </mxGeometry>
        </mxCell>
        <mxCell id="Dicnx9SFhEwgV79c3oT9-9" value="GVA sglist" style="edgeLabel;html=1;align=center;verticalAlign=middle;resizable=0;points=[];fontStyle=1" vertex="1" connectable="0" parent="Dicnx9SFhEwgV79c3oT9-8">
          <mxGeometry x="0.4545" y="-1" relative="1" as="geometry">
            <mxPoint x="30" y="6" as="offset" />
          </mxGeometry>
        </mxCell>
        <mxCell id="k6S-WnNNYm_9SUemiod7-75" value="dma_memory_map" style="rounded=1;whiteSpace=wrap;html=1;shadow=0;labelBackgroundColor=none;strokeWidth=1;fontFamily=Verdana;fontSize=10;align=center;fontStyle=1" vertex="1" parent="k6S-WnNNYm_9SUemiod7-59">
          <mxGeometry x="20" y="117" width="150" height="24" as="geometry" />
        </mxCell>
        <mxCell id="k6S-WnNNYm_9SUemiod7-104" value="xenforeignmemory&lt;span style=&quot;background-color: transparent; color: light-dark(rgb(255, 18, 1), rgb(255, 137, 123));&quot;&gt;_map2&lt;/span&gt;" style="rounded=1;whiteSpace=wrap;html=1;shadow=0;labelBackgroundColor=none;strokeWidth=1;fontFamily=Verdana;fontSize=10;align=center;fontStyle=1;fontColor=#FF1201;" vertex="1" parent="k6S-WnNNYm_9SUemiod7-59">
          <mxGeometry x="20" y="233" width="150" height="37" as="geometry" />
        </mxCell>
        <mxCell id="Dicnx9SFhEwgV79c3oT9-10" style="edgeStyle=orthogonalEdgeStyle;rounded=0;orthogonalLoop=1;jettySize=auto;html=1;exitX=0.5;exitY=1;exitDx=0;exitDy=0;entryX=0.5;entryY=0;entryDx=0;entryDy=0;" edge="1" parent="k6S-WnNNYm_9SUemiod7-59" source="k6S-WnNNYm_9SUemiod7-107" target="k6S-WnNNYm_9SUemiod7-106">
          <mxGeometry relative="1" as="geometry" />
        </mxCell>
        <object label="qemu_ram_ptr_length" id="k6S-WnNNYm_9SUemiod7-107">
          <mxCell style="rounded=1;whiteSpace=wrap;html=1;shadow=0;labelBackgroundColor=none;strokeWidth=1;fontFamily=Verdana;fontSize=10;align=center;fontStyle=1" vertex="1" parent="k6S-WnNNYm_9SUemiod7-59">
            <mxGeometry x="20" y="154" width="150" height="24" as="geometry" />
          </mxCell>
        </object>
        <mxCell id="Dicnx9SFhEwgV79c3oT9-15" style="edgeStyle=orthogonalEdgeStyle;rounded=0;orthogonalLoop=1;jettySize=auto;html=1;exitX=0.5;exitY=1;exitDx=0;exitDy=0;entryX=0.5;entryY=0;entryDx=0;entryDy=0;" edge="1" parent="k6S-WnNNYm_9SUemiod7-59" source="k6S-WnNNYm_9SUemiod7-106" target="k6S-WnNNYm_9SUemiod7-104">
          <mxGeometry relative="1" as="geometry" />
        </mxCell>
        <mxCell id="k6S-WnNNYm_9SUemiod7-106" value="xen_map_cache" style="rounded=1;whiteSpace=wrap;html=1;shadow=0;labelBackgroundColor=none;strokeWidth=1;fontFamily=Verdana;fontSize=10;align=center;fontStyle=1" vertex="1" parent="k6S-WnNNYm_9SUemiod7-59">
          <mxGeometry x="20" y="194" width="150" height="25" as="geometry" />
        </mxCell>
        <mxCell id="k6S-WnNNYm_9SUemiod7-14" value="&lt;span style=&quot;font-size: 10px;&quot;&gt;virtio_gpu_init_udmabuf&lt;/span&gt;" style="rounded=1;whiteSpace=wrap;html=1;shadow=0;labelBackgroundColor=none;strokeWidth=1;fontFamily=Verdana;fontSize=8;align=center;fontStyle=1" vertex="1" parent="k6S-WnNNYm_9SUemiod7-59">
          <mxGeometry x="17" y="333" width="150" height="36" as="geometry" />
        </mxCell>
        <mxCell id="k6S-WnNNYm_9SUemiod7-63" value="virglrender" style="swimlane;html=1;startSize=20;" vertex="1" parent="k6S-WnNNYm_9SUemiod7-58">
          <mxGeometry x="250" y="20" width="90" height="750" as="geometry" />
        </mxCell>
        <mxCell id="k6S-WnNNYm_9SUemiod7-118" style="edgeStyle=orthogonalEdgeStyle;rounded=0;orthogonalLoop=1;jettySize=auto;html=1;exitX=1;exitY=0.5;exitDx=0;exitDy=0;entryX=0;entryY=0.5;entryDx=0;entryDy=0;" edge="1" parent="k6S-WnNNYm_9SUemiod7-58" source="k6S-WnNNYm_9SUemiod7-104" target="k6S-WnNNYm_9SUemiod7-77">
          <mxGeometry relative="1" as="geometry" />
        </mxCell>
        <mxCell id="k6S-WnNNYm_9SUemiod7-124" style="edgeStyle=orthogonalEdgeStyle;rounded=0;orthogonalLoop=1;jettySize=auto;html=1;exitX=1;exitY=0.5;exitDx=0;exitDy=0;entryX=0;entryY=0.5;entryDx=0;entryDy=0;" edge="1" parent="k6S-WnNNYm_9SUemiod7-58" source="k6S-WnNNYm_9SUemiod7-61" target="Dicnx9SFhEwgV79c3oT9-1">
          <mxGeometry relative="1" as="geometry" />
        </mxCell>
        <mxCell id="k6S-WnNNYm_9SUemiod7-125" value="&lt;br&gt;&lt;div&gt;&lt;span style=&quot;font-family: Calibri, sans-serif;&quot;&gt;dma-buf fd&amp;nbsp;&lt;/span&gt;&lt;/div&gt;" style="edgeLabel;html=1;align=center;verticalAlign=middle;resizable=0;points=[];fontStyle=1;fontSize=14;" vertex="1" connectable="0" parent="k6S-WnNNYm_9SUemiod7-124">
          <mxGeometry x="-0.0935" y="-2" relative="1" as="geometry">
            <mxPoint y="-22" as="offset" />
          </mxGeometry>
        </mxCell>
        <mxCell id="Dicnx9SFhEwgV79c3oT9-5" style="edgeStyle=orthogonalEdgeStyle;rounded=0;orthogonalLoop=1;jettySize=auto;html=1;exitX=1;exitY=0.5;exitDx=0;exitDy=0;entryX=0;entryY=0.5;entryDx=0;entryDy=0;" edge="1" parent="k6S-WnNNYm_9SUemiod7-58" source="k6S-WnNNYm_9SUemiod7-14" target="k6S-WnNNYm_9SUemiod7-15">
          <mxGeometry relative="1" as="geometry" />
        </mxCell>
        <mxCell id="Dicnx9SFhEwgV79c3oT9-7" value="&lt;span style=&quot;font-family: Calibri, sans-serif;&quot;&gt;mmap BO to get contiguous GVA range&lt;/span&gt;" style="edgeLabel;html=1;align=center;verticalAlign=middle;resizable=0;points=[];fontSize=13;fontStyle=1" vertex="1" connectable="0" parent="Dicnx9SFhEwgV79c3oT9-5">
          <mxGeometry x="-0.504" y="3" relative="1" as="geometry">
            <mxPoint x="73" y="-12" as="offset" />
          </mxGeometry>
        </mxCell>
        <mxCell id="Dicnx9SFhEwgV79c3oT9-6" style="edgeStyle=orthogonalEdgeStyle;rounded=0;orthogonalLoop=1;jettySize=auto;html=1;exitX=0.5;exitY=1;exitDx=0;exitDy=0;entryX=1;entryY=0.5;entryDx=0;entryDy=0;" edge="1" parent="k6S-WnNNYm_9SUemiod7-58" source="k6S-WnNNYm_9SUemiod7-15" target="k6S-WnNNYm_9SUemiod7-5">
          <mxGeometry relative="1" as="geometry" />
        </mxCell>
        <mxCell id="k6S-WnNNYm_9SUemiod7-67" value="xdna driver" style="swimlane;html=1;startSize=20;" vertex="1" parent="k6S-WnNNYm_9SUemiod7-58">
          <mxGeometry x="340" y="20" width="170" height="750" as="geometry" />
        </mxCell>
        <mxCell id="k6S-WnNNYm_9SUemiod7-16" value="&lt;span style=&quot;font-size: 10px;&quot;&gt;amdxdna_gem&lt;/span&gt;&lt;div&gt;&lt;span style=&quot;font-size: 10px;&quot;&gt;_import_udma_object&lt;/span&gt;&lt;/div&gt;" style="rounded=1;whiteSpace=wrap;html=1;shadow=0;labelBackgroundColor=none;strokeWidth=1;fontFamily=Verdana;fontSize=8;align=center;fontStyle=1" vertex="1" parent="k6S-WnNNYm_9SUemiod7-67">
          <mxGeometry x="10" y="113" width="150" height="24.75" as="geometry" />
        </mxCell>
        <mxCell id="Dicnx9SFhEwgV79c3oT9-2" style="edgeStyle=orthogonalEdgeStyle;rounded=0;orthogonalLoop=1;jettySize=auto;html=1;exitX=0.5;exitY=1;exitDx=0;exitDy=0;entryX=0.5;entryY=0;entryDx=0;entryDy=0;" edge="1" parent="k6S-WnNNYm_9SUemiod7-67" source="Dicnx9SFhEwgV79c3oT9-1" target="k6S-WnNNYm_9SUemiod7-16">
          <mxGeometry relative="1" as="geometry" />
        </mxCell>
        <mxCell id="Dicnx9SFhEwgV79c3oT9-1" value="amdxdna_drm&lt;div&gt;_create_bo_ioctl&lt;/div&gt;" style="rounded=1;whiteSpace=wrap;html=1;shadow=0;labelBackgroundColor=none;strokeWidth=1;fontFamily=Verdana;fontSize=10;align=center;fontStyle=1" vertex="1" parent="k6S-WnNNYm_9SUemiod7-67">
          <mxGeometry x="20" y="46" width="130" height="37.5" as="geometry" />
        </mxCell>
        <mxCell id="k6S-WnNNYm_9SUemiod7-5" value="amdxdna_gem&lt;div&gt;_shmem_obj_mmap&lt;/div&gt;" style="rounded=1;whiteSpace=wrap;html=1;shadow=0;labelBackgroundColor=none;strokeWidth=1;fontFamily=Verdana;fontSize=10;align=center;fontStyle=1" vertex="1" parent="k6S-WnNNYm_9SUemiod7-67">
          <mxGeometry x="15" y="383" width="140" height="35" as="geometry" />
        </mxCell>
        <mxCell id="k6S-WnNNYm_9SUemiod7-73" value="linux" style="swimlane;html=1;startSize=20;" vertex="1" parent="k6S-WnNNYm_9SUemiod7-58">
          <mxGeometry x="510" y="20" width="180" height="750" as="geometry" />
        </mxCell>
        <mxCell id="k6S-WnNNYm_9SUemiod7-77" value="privcmd_ioctl_mmap_batch" style="rounded=1;whiteSpace=wrap;html=1;shadow=0;labelBackgroundColor=none;strokeWidth=1;fontFamily=Verdana;fontSize=10;align=center;fontStyle=1" vertex="1" parent="k6S-WnNNYm_9SUemiod7-73">
          <mxGeometry x="3.38" y="237" width="166.62" height="30" as="geometry" />
        </mxCell>
        <mxCell id="k6S-WnNNYm_9SUemiod7-15" value="mmap" style="rounded=1;whiteSpace=wrap;html=1;shadow=0;labelBackgroundColor=none;strokeWidth=1;fontFamily=Verdana;fontSize=10;align=center;fontStyle=1" vertex="1" parent="k6S-WnNNYm_9SUemiod7-73">
          <mxGeometry x="14" y="340" width="140" height="21" as="geometry" />
        </mxCell>
        <mxCell id="k6S-WnNNYm_9SUemiod7-100" style="edgeStyle=orthogonalEdgeStyle;rounded=0;orthogonalLoop=1;jettySize=auto;html=1;exitX=1;exitY=0.5;exitDx=0;exitDy=0;entryX=0;entryY=0.5;entryDx=0;entryDy=0;" edge="1" parent="1" source="k6S-WnNNYm_9SUemiod7-28" target="k6S-WnNNYm_9SUemiod7-61">
          <mxGeometry relative="1" as="geometry" />
        </mxCell>
        <mxCell id="k6S-WnNNYm_9SUemiod7-102" value="xen" style="swimlane;html=1;startSize=40;fontSize=20;" vertex="1" parent="1">
          <mxGeometry x="1219" y="20" width="199" height="770" as="geometry" />
        </mxCell>
        <mxCell id="k6S-WnNNYm_9SUemiod7-122" value="&lt;span style=&quot;background-color: light-dark(rgb(255, 255, 255), rgb(18, 18, 18)); color: light-dark(rgb(23, 43, 77), rgb(186, 203, 232)); font-family: -apple-system, BlinkMacSystemFont, &amp;quot;Segoe UI&amp;quot;, Roboto, Oxygen, Ubuntu, &amp;quot;Fira Sans&amp;quot;, &amp;quot;Droid Sans&amp;quot;, &amp;quot;Helvetica Neue&amp;quot;, sans-serif;&quot;&gt;GPA sglist&lt;/span&gt;" style="text;whiteSpace=wrap;html=1;fontStyle=1;fontSize=12;" vertex="1" parent="1">
          <mxGeometry x="463" y="79" width="68" height="40" as="geometry" />
        </mxCell>
        <mxCell id="k6S-WnNNYm_9SUemiod7-82" value="xen_remap_pfn" style="rounded=1;whiteSpace=wrap;html=1;shadow=0;labelBackgroundColor=none;strokeWidth=1;fontFamily=Verdana;fontSize=10;align=center;fontStyle=1" vertex="1" parent="1">
          <mxGeometry x="1039" y="322" width="140" height="27" as="geometry" />
        </mxCell>
        <mxCell id="k6S-WnNNYm_9SUemiod7-110" value="HYPERVISOR_mmu_update" style="rounded=1;whiteSpace=wrap;html=1;shadow=0;labelBackgroundColor=none;strokeWidth=1;fontFamily=Verdana;fontSize=10;align=center;fontStyle=1" vertex="1" parent="1">
          <mxGeometry x="1239" y="321" width="170" height="30" as="geometry" />
        </mxCell>
        <mxCell id="k6S-WnNNYm_9SUemiod7-120" style="edgeStyle=orthogonalEdgeStyle;rounded=0;orthogonalLoop=1;jettySize=auto;html=1;exitX=0.5;exitY=1;exitDx=0;exitDy=0;entryX=0.5;entryY=0;entryDx=0;entryDy=0;" edge="1" parent="1" source="k6S-WnNNYm_9SUemiod7-77" target="k6S-WnNNYm_9SUemiod7-82">
          <mxGeometry relative="1" as="geometry" />
        </mxCell>
        <mxCell id="k6S-WnNNYm_9SUemiod7-121" style="edgeStyle=orthogonalEdgeStyle;rounded=0;orthogonalLoop=1;jettySize=auto;html=1;exitX=1;exitY=0.5;exitDx=0;exitDy=0;entryX=0;entryY=0.5;entryDx=0;entryDy=0;" edge="1" parent="1" source="k6S-WnNNYm_9SUemiod7-82" target="k6S-WnNNYm_9SUemiod7-110">
          <mxGeometry relative="1" as="geometry" />
        </mxCell>
      </root>
    </mxGraphModel>
  </diagram>
</mxfile>
